<mxfile host="app.diagrams.net" modified="2024-01-31T10:34:10.836Z" agent="Mozilla/5.0 (Macintosh; Intel Mac OS X 10_15_7) AppleWebKit/537.36 (KHTML, like Gecko) Chrome/120.0.0.0 Safari/537.36" etag="S-Ab4ntAMrN98NmQv4-r" version="21.6.6" type="github">
  <diagram id="prtHgNgQTEPvFCAcTncT" name="Page-1">
    <mxGraphModel dx="954" dy="518" grid="1" gridSize="10" guides="1" tooltips="1" connect="1" arrows="1" fold="1" page="1" pageScale="1" pageWidth="827" pageHeight="1169" math="0" shadow="0">
      <root>
        <mxCell id="0" />
        <mxCell id="1" parent="0" />
        <mxCell id="hLxNbce5ZOM8szrczVye-2" value="" style="endArrow=none;html=1;rounded=0;" edge="1" parent="1">
          <mxGeometry width="50" height="50" relative="1" as="geometry">
            <mxPoint x="10" y="380" as="sourcePoint" />
            <mxPoint x="800" y="380" as="targetPoint" />
          </mxGeometry>
        </mxCell>
        <mxCell id="hLxNbce5ZOM8szrczVye-7" value="Service" style="edgeLabel;html=1;align=center;verticalAlign=middle;resizable=0;points=[];" vertex="1" connectable="0" parent="hLxNbce5ZOM8szrczVye-2">
          <mxGeometry x="-0.7926" y="-3" relative="1" as="geometry">
            <mxPoint as="offset" />
          </mxGeometry>
        </mxCell>
        <mxCell id="hLxNbce5ZOM8szrczVye-30" style="edgeStyle=orthogonalEdgeStyle;rounded=0;orthogonalLoop=1;jettySize=auto;html=1;entryX=1;entryY=0.5;entryDx=0;entryDy=0;" edge="1" parent="1" source="hLxNbce5ZOM8szrczVye-5" target="hLxNbce5ZOM8szrczVye-13">
          <mxGeometry relative="1" as="geometry" />
        </mxCell>
        <mxCell id="hLxNbce5ZOM8szrczVye-33" style="edgeStyle=orthogonalEdgeStyle;rounded=0;orthogonalLoop=1;jettySize=auto;html=1;entryX=0.296;entryY=1.033;entryDx=0;entryDy=0;entryPerimeter=0;" edge="1" parent="1" source="hLxNbce5ZOM8szrczVye-5" target="hLxNbce5ZOM8szrczVye-18">
          <mxGeometry relative="1" as="geometry" />
        </mxCell>
        <mxCell id="hLxNbce5ZOM8szrczVye-39" style="edgeStyle=orthogonalEdgeStyle;rounded=0;orthogonalLoop=1;jettySize=auto;html=1;exitX=0.25;exitY=0;exitDx=0;exitDy=0;entryX=0.75;entryY=1;entryDx=0;entryDy=0;" edge="1" parent="1" source="hLxNbce5ZOM8szrczVye-5" target="hLxNbce5ZOM8szrczVye-34">
          <mxGeometry relative="1" as="geometry" />
        </mxCell>
        <mxCell id="hLxNbce5ZOM8szrczVye-5" value="NetworkErrorProto&lt;br&gt;status 400" style="rounded=0;whiteSpace=wrap;html=1;" vertex="1" parent="1">
          <mxGeometry x="360" y="410" width="120" height="60" as="geometry" />
        </mxCell>
        <mxCell id="hLxNbce5ZOM8szrczVye-6" value="ErrorProto" style="rounded=0;whiteSpace=wrap;html=1;" vertex="1" parent="1">
          <mxGeometry x="360" y="500" width="120" height="60" as="geometry" />
        </mxCell>
        <mxCell id="hLxNbce5ZOM8szrczVye-8" value="" style="endArrow=none;html=1;rounded=0;" edge="1" parent="1">
          <mxGeometry width="50" height="50" relative="1" as="geometry">
            <mxPoint x="10" y="280" as="sourcePoint" />
            <mxPoint x="800" y="280" as="targetPoint" />
          </mxGeometry>
        </mxCell>
        <mxCell id="hLxNbce5ZOM8szrczVye-9" value="Contrloller&lt;br&gt;" style="edgeLabel;html=1;align=center;verticalAlign=middle;resizable=0;points=[];" vertex="1" connectable="0" parent="hLxNbce5ZOM8szrczVye-8">
          <mxGeometry x="-0.7926" y="-3" relative="1" as="geometry">
            <mxPoint as="offset" />
          </mxGeometry>
        </mxCell>
        <mxCell id="hLxNbce5ZOM8szrczVye-11" value="" style="endArrow=classic;html=1;rounded=0;exitX=0.5;exitY=0;exitDx=0;exitDy=0;entryX=0.5;entryY=1;entryDx=0;entryDy=0;" edge="1" parent="1" source="hLxNbce5ZOM8szrczVye-6" target="hLxNbce5ZOM8szrczVye-5">
          <mxGeometry width="50" height="50" relative="1" as="geometry">
            <mxPoint x="390" y="420" as="sourcePoint" />
            <mxPoint x="440" y="370" as="targetPoint" />
          </mxGeometry>
        </mxCell>
        <mxCell id="hLxNbce5ZOM8szrczVye-35" style="edgeStyle=orthogonalEdgeStyle;rounded=0;orthogonalLoop=1;jettySize=auto;html=1;entryX=0.5;entryY=1;entryDx=0;entryDy=0;" edge="1" parent="1" source="hLxNbce5ZOM8szrczVye-13" target="hLxNbce5ZOM8szrczVye-34">
          <mxGeometry relative="1" as="geometry" />
        </mxCell>
        <mxCell id="hLxNbce5ZOM8szrczVye-13" value="CustomError" style="rounded=0;whiteSpace=wrap;html=1;" vertex="1" parent="1">
          <mxGeometry x="200" y="410" width="120" height="60" as="geometry" />
        </mxCell>
        <mxCell id="hLxNbce5ZOM8szrczVye-15" value="" style="endArrow=none;html=1;rounded=0;" edge="1" parent="1">
          <mxGeometry width="50" height="50" relative="1" as="geometry">
            <mxPoint x="10" y="170" as="sourcePoint" />
            <mxPoint x="800" y="170" as="targetPoint" />
          </mxGeometry>
        </mxCell>
        <mxCell id="hLxNbce5ZOM8szrczVye-16" value="Controller Decorator" style="edgeLabel;html=1;align=center;verticalAlign=middle;resizable=0;points=[];" vertex="1" connectable="0" parent="hLxNbce5ZOM8szrczVye-15">
          <mxGeometry x="-0.7926" y="-3" relative="1" as="geometry">
            <mxPoint as="offset" />
          </mxGeometry>
        </mxCell>
        <mxCell id="hLxNbce5ZOM8szrczVye-18" value="try {} catch (e) {&lt;br&gt;if (e instanceof NetworkErrorProto) {&lt;br&gt;&lt;br&gt;} etc" style="rounded=0;whiteSpace=wrap;html=1;" vertex="1" parent="1">
          <mxGeometry x="260" y="190" width="540" height="60" as="geometry" />
        </mxCell>
        <mxCell id="hLxNbce5ZOM8szrczVye-32" style="edgeStyle=orthogonalEdgeStyle;rounded=0;orthogonalLoop=1;jettySize=auto;html=1;entryX=0.594;entryY=1.083;entryDx=0;entryDy=0;entryPerimeter=0;" edge="1" parent="1" source="hLxNbce5ZOM8szrczVye-19" target="hLxNbce5ZOM8szrczVye-18">
          <mxGeometry relative="1" as="geometry" />
        </mxCell>
        <mxCell id="hLxNbce5ZOM8szrczVye-19" value="AuthError&lt;br&gt;status 401" style="rounded=0;whiteSpace=wrap;html=1;" vertex="1" parent="1">
          <mxGeometry x="520" y="410" width="120" height="60" as="geometry" />
        </mxCell>
        <mxCell id="hLxNbce5ZOM8szrczVye-23" value="" style="endArrow=classic;html=1;rounded=0;exitX=1;exitY=0.5;exitDx=0;exitDy=0;entryX=0.5;entryY=1;entryDx=0;entryDy=0;" edge="1" parent="1" source="hLxNbce5ZOM8szrczVye-6" target="hLxNbce5ZOM8szrczVye-19">
          <mxGeometry width="50" height="50" relative="1" as="geometry">
            <mxPoint x="530" y="490" as="sourcePoint" />
            <mxPoint x="440" y="290" as="targetPoint" />
            <Array as="points">
              <mxPoint x="580" y="530" />
            </Array>
          </mxGeometry>
        </mxCell>
        <mxCell id="hLxNbce5ZOM8szrczVye-31" style="edgeStyle=orthogonalEdgeStyle;rounded=0;orthogonalLoop=1;jettySize=auto;html=1;entryX=0.889;entryY=1.017;entryDx=0;entryDy=0;entryPerimeter=0;" edge="1" parent="1" source="hLxNbce5ZOM8szrczVye-24" target="hLxNbce5ZOM8szrczVye-18">
          <mxGeometry relative="1" as="geometry" />
        </mxCell>
        <mxCell id="hLxNbce5ZOM8szrczVye-24" value="InternalError&lt;br&gt;status 500" style="rounded=0;whiteSpace=wrap;html=1;" vertex="1" parent="1">
          <mxGeometry x="680" y="410" width="120" height="60" as="geometry" />
        </mxCell>
        <mxCell id="hLxNbce5ZOM8szrczVye-25" value="" style="endArrow=classic;html=1;rounded=0;exitX=1;exitY=0.5;exitDx=0;exitDy=0;entryX=0.5;entryY=1;entryDx=0;entryDy=0;" edge="1" parent="1" source="hLxNbce5ZOM8szrczVye-6" target="hLxNbce5ZOM8szrczVye-24">
          <mxGeometry width="50" height="50" relative="1" as="geometry">
            <mxPoint x="490" y="540" as="sourcePoint" />
            <mxPoint x="590" y="480" as="targetPoint" />
            <Array as="points">
              <mxPoint x="740" y="530" />
            </Array>
          </mxGeometry>
        </mxCell>
        <mxCell id="hLxNbce5ZOM8szrczVye-34" value="try {} catch (e) {&lt;br style=&quot;border-color: var(--border-color);&quot;&gt;if (e instanceof CustomError) {} etc" style="rounded=0;whiteSpace=wrap;html=1;" vertex="1" parent="1">
          <mxGeometry x="250" y="300" width="160" height="60" as="geometry" />
        </mxCell>
        <mxCell id="hLxNbce5ZOM8szrczVye-36" value="" style="shape=flexArrow;endArrow=classic;html=1;rounded=0;" edge="1" parent="1">
          <mxGeometry width="50" height="50" relative="1" as="geometry">
            <mxPoint x="160" y="480" as="sourcePoint" />
            <mxPoint x="160" y="170" as="targetPoint" />
          </mxGeometry>
        </mxCell>
      </root>
    </mxGraphModel>
  </diagram>
</mxfile>
